<?xml version="1.0" standalone="no"?>
<!DOCTYPE svg PUBLIC "-//W3C//DTD SVG 20010904//EN"
 "http://www.w3.org/TR/2001/REC-SVG-20010904/DTD/svg10.dtd">
<svg version="1.0" xmlns="http://www.w3.org/2000/svg"
 width="1069.000000pt" height="1280.000000pt" viewBox="0 0 1069.000000 1280.000000"
 preserveAspectRatio="xMidYMid meet">
<metadata>
Created by potrace 1.15, written by Peter Selinger 2001-2017
</metadata>
<g transform="translate(0.000000,1280.000000) scale(0.100000,-0.100000)"
fill="#000000" stroke="none">
<path d="M4035 12794 c-239 -28 -346 -49 -519 -104 -283 -91 -546 -233 -781
-423 -113 -92 -307 -294 -398 -415 -250 -334 -422 -748 -489 -1177 -28 -182
-31 -559 -5 -728 133 -864 615 -1548 1348 -1911 496 -246 1040 -306 1565 -171
750 192 1349 726 1642 1465 129 322 185 620 185 970 0 420 -89 793 -279 1172
-373 743 -1091 1241 -1899 1318 -103 9 -301 11 -370 4z"/>
<path d="M6630 8230 c0 -39 1 -40 23 -28 17 10 144 14 542 18 468 5 520 7 521
21 2 23 -124 29 -648 29 l-438 0 0 -40z"/>
<path d="M6700 8200 c-57 -10 -95 -25 -132 -51 -24 -18 -43 -21 -118 -20 l-90
1 -1 -77 c-1 -43 -5 -334 -8 -648 l-7 -570 -2 503 -2 502 -55 0 -54 0 -3 -592
c-3 -580 -3 -594 17 -618 30 -38 21 -29 -167 155 -498 488 -965 751 -1507 847
-165 29 -469 31 -637 5 -425 -66 -834 -257 -1229 -573 -139 -111 -441 -412
-572 -569 -1012 -1217 -1741 -3198 -2037 -5540 -43 -338 -101 -933 -92 -942 2
-2 1908 -7 4236 -10 l4232 -6 -6 44 c-3 24 -10 107 -16 184 -44 561 -133 1211
-246 1807 l-36 187 31 38 c16 21 40 61 53 88 l23 50 3 897 2 897 848 3 847 3
62 29 c101 46 168 132 192 244 18 85 15 1351 -3 1420 -36 135 -133 227 -265
252 -33 6 -368 11 -865 12 l-811 3 665 2 665 3 -1 48 -2 47 72 6 c39 3 -261 6
-666 7 l-738 2 -2 838 -3 837 -33 67 c-39 80 -101 138 -181 169 -55 22 -62 23
-686 25 -346 2 -650 -1 -675 -6z m-210 -124 c0 -2 -8 -10 -17 -17 -16 -13 -17
-12 -4 4 13 16 21 21 21 13z m-205 -1496 c10 -11 16 -20 13 -20 -3 0 -13 9
-23 20 -10 11 -16 20 -13 20 3 0 13 -9 23 -20z m3288 -327 c-18 -2 -48 -2 -65
0 -18 2 -4 4 32 4 36 0 50 -2 33 -4z"/>
</g>
</svg>
