<?xml version="1.0" standalone="no"?>
<!DOCTYPE svg PUBLIC "-//W3C//DTD SVG 20010904//EN"
 "http://www.w3.org/TR/2001/REC-SVG-20010904/DTD/svg10.dtd">
<svg version="1.0" xmlns="http://www.w3.org/2000/svg"
 width="1034.000000pt" height="1280.000000pt" viewBox="0 0 1034.000000 1280.000000"
 preserveAspectRatio="xMidYMid meet">
<metadata>
Created by potrace 1.15, written by Peter Selinger 2001-2017
</metadata>
<g transform="translate(0.000000,1280.000000) scale(0.100000,-0.100000)"
fill="#000000" stroke="none">
<path d="M5690 12785 c-483 -67 -890 -277 -1840 -950 -1012 -717 -1475 -947
-2025 -1006 -478 -51 -1018 153 -1570 593 -72 57 -148 116 -170 131 -47 32
-85 36 -85 9 0 -29 81 -483 199 -1117 136 -733 221 -1181 501 -2640 39 -203
93 -485 120 -625 27 -140 79 -410 115 -600 37 -190 97 -507 135 -705 l69 -360
43 -39 c523 -471 661 -547 1253 -691 332 -81 378 -88 535 -82 283 10 595 97
908 252 306 152 547 305 1072 680 511 365 834 572 1140 733 669 352 1189 401
1759 168 304 -125 554 -284 861 -550 l135 -117 117 -607 c822 -4276 994 -5163
1012 -5207 23 -53 41 -58 201 -50 78 4 148 11 156 15 10 7 0 78 -50 352 -70
385 -326 1729 -552 2903 -83 429 -171 888 -195 1020 -96 515 -172 915 -345
1815 -99 514 -204 1063 -234 1220 -99 524 -306 1613 -335 1765 -172 890 -246
1275 -280 1460 -50 266 -181 960 -245 1290 -25 132 -50 259 -54 283 -5 24 -10
45 -13 47 -2 2 -42 9 -88 14 -176 22 -270 8 -289 -43 -21 -53 -27 -50 -248
116 -487 365 -968 541 -1471 537 -81 -1 -190 -7 -242 -14z"/>
</g>
</svg>
